<?xml version="1.0" encoding="UTF-8" standalone="no"?>
<!-- Generator: Adobe Illustrator 19.2.1, SVG Export Plug-In . SVG Version: 6.00 Build 0)  -->

<svg
   xmlns:dc="http://purl.org/dc/elements/1.1/"
   xmlns:cc="http://creativecommons.org/ns#"
   xmlns:rdf="http://www.w3.org/1999/02/22-rdf-syntax-ns#"
   xmlns:svg="http://www.w3.org/2000/svg"
   xmlns="http://www.w3.org/2000/svg"
   xmlns:sodipodi="http://sodipodi.sourceforge.net/DTD/sodipodi-0.dtd"
   xmlns:inkscape="http://www.inkscape.org/namespaces/inkscape"
   version="1.1"
   x="0px"
   y="0px"
   viewBox="0 0 292.60718 244.30708"
   xml:space="preserve"
   id="svg19"
   sodipodi:docname="trial_thicklines.svg"
   width="292.60718"
   height="244.30708"
   inkscape:version="0.92.3 (2405546, 2018-03-11)"><metadata
   id="metadata25"><rdf:RDF><cc:Work
       rdf:about=""><dc:format>image/svg+xml</dc:format><dc:type
         rdf:resource="http://purl.org/dc/dcmitype/StillImage" /><dc:title></dc:title></cc:Work></rdf:RDF></metadata><defs
   id="defs23" /><sodipodi:namedview
   pagecolor="#ffffff"
   bordercolor="#666666"
   borderopacity="1"
   objecttolerance="10"
   gridtolerance="10"
   guidetolerance="10"
   inkscape:pageopacity="0"
   inkscape:pageshadow="2"
   inkscape:window-width="2493"
   inkscape:window-height="1376"
   id="namedview21"
   showgrid="false"
   fit-margin-top="0"
   fit-margin-left="0"
   fit-margin-right="0"
   fit-margin-bottom="0"
   inkscape:zoom="1.1919192"
   inkscape:cx="182.17198"
   inkscape:cy="54.727239"
   inkscape:window-x="2227"
   inkscape:window-y="2427"
   inkscape:window-maximized="1"
   inkscape:current-layer="svg19" />
<style
   type="text/css"
   id="style2">
	.st0{fill:none;stroke:#000000;stroke-miterlimit:10;}
</style>
<g
   id="cortex"
   transform="translate(-179.9509,-269.19291)"
   style="stroke-width:3;stroke-miterlimit:4;stroke-dasharray:none">
	<path
   class="st0"
   d="m 317.1,273.7 c -51.9,18.1 -161.9,66.2 -131.4,137.6 27.5,64.2 131.8,70.4 188.9,66.9 30.7,-1.9 47,0.1 67.1,-23.6 22.4,-26.4 35.1,-66.1 28.7,-100.4 C 460.2,299.6 368.1,256 317.1,273.7 Z"
   id="path4"
   inkscape:connector-curvature="0"
   style="fill:none;stroke:#000000;stroke-miterlimit:4;stroke-width:3;stroke-dasharray:none" />
</g>
<g
   id="s1"
   transform="translate(-179.9509,-269.19291)"
   style="stroke-width:3;stroke-miterlimit:4;stroke-dasharray:none">
	<path
   class="st0"
   d="m 313.5,330.9 c -3.7,9.6 -4.9,20 -6.2,30.2 -1.2,9.6 -1.7,20.9 5.6,27.2 7.3,6.3 19.1,3.9 26.5,-2.4 5,-4.2 8.8,-10 10.6,-16.3 1.1,-3.9 1.6,-7.9 2,-11.9 1.6,-15.4 3.3,-30.8 4.9,-46.2 0.7,-6.2 1.1,-13.2 -2.8,-18 -8.8,-10.9 -21.2,-1.1 -24.5,8.7 -3.7,10.7 -12,17.8 -16.1,28.7 z"
   id="path7"
   inkscape:connector-curvature="0"
   style="fill:none;stroke:#000000;stroke-miterlimit:4;stroke-width:3;stroke-dasharray:none" />
</g>
<g
   id="v1"
   transform="translate(-179.9509,-269.19291)"
   style="stroke-width:3;stroke-miterlimit:4;stroke-dasharray:none">
	<path
   class="st0"
   d="m 416.2,351.7 c -1.9,8.5 -2,17.4 -0.2,26 2.2,10.6 7.6,20.9 16.6,26.9 9,6 21.9,6.5 30.2,-0.4 8.2,-6.9 8,-21.5 7.6,-31.2 -0.3,-8 -1.1,-16.2 -3.9,-23.7 -1.4,-3.8 -3.3,-7.4 -5.3,-11 -3.7,-7 -19.8,-34.6 -31.1,-24.5 -4,3.6 -5.2,12.9 -7,17.7 -2.5,6.6 -5.3,13.2 -6.9,20.2 z"
   id="path10"
   inkscape:connector-curvature="0"
   style="fill:none;stroke:#000000;stroke-miterlimit:4;stroke-width:3;stroke-dasharray:none" />
</g>
<g
   id="a1"
   transform="translate(-179.9509,-269.19291)"
   style="stroke-width:3;stroke-miterlimit:4;stroke-dasharray:none">
	<path
   class="st0"
   d="m 379.3,398.4 c -23.5,3 -29,39.6 -0.8,40.3 19.1,0.4 43.3,-45.7 0.8,-40.3 -4.9,0.6 8,-1 0,0 z"
   id="path13"
   inkscape:connector-curvature="0"
   style="fill:none;stroke:#000000;stroke-miterlimit:4;stroke-width:3;stroke-dasharray:none" />
</g>
<g
   id="_x33_mm"
   transform="translate(-179.9509,-269.19291)">
	<line
   class="st0"
   x1="267"
   y1="513"
   x2="365.70001"
   y2="513"
   id="line16"
   style="fill:none;stroke:#000000;stroke-miterlimit:10" />
</g>
</svg>
